<!-- This Source Code Form is subject to the terms of the Mozilla Public
   - License, v. 2.0. If a copy of the MPL was not distributed with this
   - file, You can obtain one at http://mozilla.org/MPL/2.0/. -->
<svg width="56" height="56" viewBox="0 0 56 56" fill="none" xmlns="http://www.w3.org/2000/svg">
<path fill-rule="evenodd" clip-rule="evenodd" d="M56 17.3237V17.4407L55.9996 25.0776V30.9222L56 38.563V38.7035C56 39.3224 56 39.9413 55.9962 40.5602C55.9929 41.121 55.9864 41.6817 55.9712 42.2423C55.9383 43.4635 55.8664 44.6954 55.6496 45.903C55.4294 47.1294 55.07 48.2707 54.5034 49.3847C53.9466 50.4791 53.2195 51.4804 52.3519 52.3486C51.4843 53.2171 50.4836 53.9449 49.39 54.5021C48.2774 55.0689 47.1376 55.4285 45.9131 55.6488C44.7059 55.8659 43.4746 55.938 42.2541 55.971C41.6939 55.9861 41.1337 55.9926 40.5733 55.996C39.9556 55.9998 39.3379 55.9997 38.7202 55.9997H38.5777L30.9371 56H25.1461L17.4906 55.9998H17.3733C16.7459 55.9998 16.1186 55.9998 15.4912 55.996C14.9297 55.9926 14.3684 55.9861 13.8071 55.971C12.5846 55.938 11.3513 55.866 10.1424 55.649C8.91474 55.4288 7.77218 55.0691 6.65681 54.5019C5.56129 53.9447 4.55894 53.2169 3.68965 52.3486C2.82037 51.4803 2.09163 50.4788 1.5338 49.3842C0.966401 48.2707 0.606413 47.13 0.385881 45.9045C0.168474 44.6963 0.0963682 43.464 0.0633393 42.2423C0.0481841 41.6817 0.0416599 41.121 0.0382619 40.5602C0.0344916 39.9342 0.0345068 39.3082 0.0345221 38.6822L0.034524 38.563L0 30.9222L0.000203882 25.0837L0 17.6019C0 17.2454 0.00982514 16.8427 0.019569 16.4433C0.0280001 16.0977 0.0363703 15.7546 0.0382619 15.4462C0.0416599 14.8862 0.0481841 14.3262 0.0632714 13.7664C0.0963682 12.5468 0.168339 11.3166 0.385541 10.1106C0.606141 8.88603 0.966197 7.74625 1.53408 6.63367C2.09183 5.54085 2.82044 4.54088 3.68965 3.67383C4.55901 2.80658 5.56163 2.07974 6.65736 1.52328C7.77205 0.957229 8.91406 0.598124 10.141 0.378202C11.3504 0.161271 12.5841 0.0893686 13.8071 0.0564076C14.3684 0.0412523 14.9296 0.0348639 15.4911 0.0313979C16.11 0.0276115 16.7289 0.0276341 17.3477 0.0276566L17.4906 0.0276601L25.0775 0H30.8541L38.5777 0.0276601L38.7203 0.0276566C39.338 0.0276341 39.9556 0.0276115 40.5733 0.0313979C41.1337 0.0348639 41.6939 0.0412523 42.2541 0.0564076C43.4742 0.0893686 44.7051 0.161203 45.9117 0.377863C47.137 0.597852 48.2773 0.957094 49.3905 1.52355C50.4839 2.07994 51.4843 2.80672 52.3519 3.67383C53.2196 4.54094 53.9468 5.54113 54.5036 6.63414C55.0699 7.74619 55.4293 8.88528 55.6493 10.1092C55.8663 11.3157 55.9383 12.5463 55.9712 13.7664C55.9864 14.3262 55.9929 14.8861 55.9962 15.4462C56 16.072 56 16.6979 56 17.3237ZM10.466 37.0509V35.1582C10.4624 33.2804 11.1332 31.4636 12.3565 30.0386C13.5797 28.6136 15.2741 27.6749 17.1312 27.3935L27.2851 25.564L41.7847 26.4105C43.3115 26.4105 45.534 27.4589 45.534 30.2207V38.9199C45.5325 40.4005 44.9446 41.8203 43.8988 42.8687C42.8531 43.9171 41.4346 44.5089 39.9535 44.5146H17.9081C15.9329 44.5059 14.0414 43.716 12.6469 42.3175C11.2525 40.919 10.4684 39.0256 10.466 37.0509ZM14.9843 24.8459L27.2851 25.564L36.9767 23.8178C40.6944 23.2688 43.4457 20.5183 43.4457 16.7509V15.1829C43.4457 13.0636 41.7227 11.4854 39.6119 11.4854H20.9672C16.5866 11.4854 13.0008 15.3813 13.0008 19.7732V22.8562C13.002 23.3824 13.2112 23.8868 13.5827 24.2594C13.9542 24.6321 14.458 24.8429 14.9843 24.8459Z" fill="#15141A"/>
</svg>
