<!-- This Source Code Form is subject to the terms of the Mozilla Public
   - License, v. 2.0. If a copy of the MPL was not distributed with this
   - file, You can obtain one at http://mozilla.org/MPL/2.0/. -->
<svg width="56" height="56" viewBox="0 0 56 56" fill="none" xmlns="http://www.w3.org/2000/svg">
<g clip-path="url(#clip0_3395_21989)">
<path fill-rule="evenodd" clip-rule="evenodd" d="M12.4368 0H43.5632C50.4319 0 56 5.56144 56 12.4218V43.5782C56 50.4386 50.4319 56 43.5632 56H12.4368C5.56814 56 0 50.4386 0 43.5782V12.4218C0 5.56144 5.56814 0 12.4368 0ZM6.47451 39.05V36.7412H6.46486C6.46032 34.4472 7.281 32.2279 8.77739 30.4876C10.2738 28.7473 12.3463 27.6018 14.6174 27.2598L27.0198 25.0265L44.7368 26.06C46.602 26.06 49.3172 27.3396 49.3172 30.7106V41.3272C49.3162 43.1346 48.5981 44.868 47.3204 46.1478C46.0426 47.4277 44.3092 48.1497 42.4996 48.1559H15.5665C13.1541 48.1454 10.8439 47.1818 9.1404 45.4757C7.43688 43.7696 6.4785 41.4596 6.47451 39.05ZM27.0198 25.0265L38.8628 22.894C43.4047 22.2253 46.7673 18.868 46.7673 14.2697V12.3558C46.7673 9.76906 44.6638 7.84277 42.0836 7.84277H19.3053C13.9534 7.84277 9.57269 12.5925 9.57269 17.9585V21.7217C9.57414 22.3641 9.82982 22.98 10.284 23.4349C10.7382 23.8898 11.354 24.1469 11.9972 24.1502L27.0198 25.0265Z" fill="black"/>
</g>
<defs>
<clipPath id="clip0_3395_21989">
<rect width="56" height="56" fill="white"/>
</clipPath>
</defs>
</svg>
